<?xml version="1.0" standalone="no"?>
<!DOCTYPE svg PUBLIC "-//W3C//DTD SVG 20010904//EN"
 "http://www.w3.org/TR/2001/REC-SVG-20010904/DTD/svg10.dtd">
<svg version="1.0" xmlns="http://www.w3.org/2000/svg"
 width="280.000000pt" height="82.000000pt" viewBox="0 0 280.000000 82.000000"
 preserveAspectRatio="xMidYMid meet">

<g transform="translate(0.000000,82.000000) scale(0.100000,-0.100000)"
fill="#000000" stroke="none">
<path d="M466 773 c-3 -4 -41 -5 -85 -5 -66 2 -83 -1 -105 -19 -36 -28 -56
-70 -56 -117 l0 -39 -51 -5 c-89 -9 -150 -80 -132 -156 5 -22 5 -51 -1 -73 -7
-29 -5 -43 10 -74 26 -52 63 -77 123 -83 l51 -5 0 -39 c0 -47 20 -89 55 -117
23 -17 41 -20 133 -20 149 0 189 27 195 131 l2 43 51 6 c106 13 132 52 132
194 1 85 -3 105 -21 131 -28 42 -49 54 -107 61 l-48 6 -6 45 c-7 50 -37 106
-64 117 -37 15 -71 23 -76 18z m-96 -40 c0 -5 -7 -17 -15 -27 -9 -11 -15 -41
-15 -68 l0 -48 -46 0 -47 0 6 47 c4 37 12 54 36 75 28 25 81 39 81 21z m149
-7 c32 -17 51 -54 51 -101 0 -34 -1 -35 -40 -35 -40 0 -40 0 -40 38 0 21 -9
54 -19 75 -19 36 -19 37 1 37 10 0 31 -6 47 -14z m-69 -66 c15 -54 5 -70 -41
-70 -39 0 -39 0 -39 39 0 48 35 98 56 80 8 -6 18 -28 24 -49z m-230 -145 l0
-45 -42 0 c-24 -1 -54 -7 -68 -15 -35 -20 -40 -19 -40 9 0 49 58 92 128 95 20
1 22 -4 22 -44z m118 -2 l3 -43 -45 0 -46 0 0 38 c0 48 6 54 50 50 34 -3 35
-5 38 -45z m117 2 c0 -40 0 -40 -42 -43 l-43 -3 0 39 c0 48 5 54 50 50 34 -3
35 -4 35 -43z m115 -2 l0 -43 -40 0 -40 0 0 45 0 45 40 -2 40 -1 0 -44z m138
24 c25 -12 52 -55 52 -82 0 -18 -8 -19 -40 0 -14 8 -44 14 -67 15 l-43 0 0 45
0 45 38 -5 c20 -3 48 -11 60 -18z m-488 -145 l0 -45 -46 6 c-29 3 -54 13 -68
26 -21 22 -21 22 -1 34 28 17 55 24 88 24 25 0 27 -3 27 -45z m118 6 c-3 -43
-3 -43 -43 -43 -40 0 -40 0 -43 43 l-3 42 46 0 46 0 -3 -42z m117 -3 l0 -40
-40 0 -40 0 -3 43 -3 43 43 -3 43 -3 0 -40z m115 0 l0 -45 -40 0 -40 0 0 45 0
45 40 0 40 0 0 -45z m138 25 c18 -11 30 -25 26 -31 -9 -16 -69 -39 -99 -39
-23 0 -25 4 -25 45 0 44 1 45 33 45 17 0 47 -9 65 -20z m-543 -98 l55 -4 0
-40 c0 -46 -13 -53 -68 -38 -48 12 -82 51 -82 93 0 30 0 30 20 12 13 -11 41
-20 75 -23z m595 11 c0 -36 -38 -81 -77 -92 -67 -19 -73 -16 -73 34 l0 45 38
0 c20 1 51 7 67 15 40 18 45 18 45 -2z m-422 -55 c-3 -43 -3 -43 -43 -43 -40
0 -40 0 -43 43 l-3 42 46 0 46 0 -3 -42z m120 0 c-3 -43 -3 -43 -43 -43 -40 0
-40 0 -43 43 l-3 42 46 0 46 0 -3 -42z m112 -4 l0 -45 -37 3 c-37 3 -38 4 -41
46 l-3 42 40 0 41 0 0 -46z m-230 -122 c0 -27 6 -57 15 -68 20 -27 19 -34 -10
-34 -14 0 -39 13 -56 28 -24 21 -32 38 -36 75 l-6 47 47 0 46 0 0 -48z m113 4
c-3 -45 -27 -88 -47 -80 -19 7 -36 49 -36 90 l0 35 43 -3 42 -3 -2 -39z m117
9 c0 -65 -43 -115 -99 -115 -18 0 -18 1 0 37 10 21 19 54 19 75 0 38 0 38 40
38 39 0 40 -1 40 -35z"/>
<path d="M1040 760 c0 -7 287 -10 840 -10 553 0 840 3 840 10 0 7 -287 10
-840 10 -553 0 -840 -3 -840 -10z"/>
<path d="M1520 553 c0 -5 19 -63 42 -131 40 -114 45 -123 67 -120 21 3 29 18
67 128 24 69 43 126 44 128 0 2 -12 2 -26 0 -25 -3 -29 -11 -51 -88 -14 -47
-28 -89 -33 -93 -7 -8 -35 71 -55 156 -5 20 -13 27 -31 27 -13 0 -24 -3 -24
-7z"/>
<path d="M2326 551 c-10 -16 5 -42 23 -39 21 4 21 42 -1 46 -9 2 -19 -1 -22
-7z"/>
<path d="M1040 395 c0 -94 0 -95 25 -95 23 0 24 3 27 73 3 69 4 72 28 72 24 0
25 -3 28 -72 3 -70 4 -73 27 -73 23 0 24 3 27 73 3 67 5 72 27 75 32 5 41 -12
41 -85 0 -56 2 -63 20 -63 18 0 20 7 20 75 0 62 -4 79 -20 95 -23 23 -49 25
-75 6 -16 -12 -22 -12 -43 2 -20 13 -29 14 -55 4 -21 -8 -33 -9 -35 -2 -2 5
-12 10 -23 10 -17 0 -19 -8 -19 -95z"/>
<path d="M1340 482 c0 -6 14 -47 31 -91 32 -86 32 -109 -2 -118 -24 -7 -22
-36 3 -41 29 -6 53 31 91 137 20 56 37 107 37 112 0 6 -10 9 -22 7 -17 -2 -25
-15 -36 -55 -8 -29 -18 -53 -22 -53 -4 0 -13 24 -21 53 -11 41 -19 53 -37 55
-12 2 -22 -1 -22 -6z"/>
<path d="M1790 477 c-32 -16 -39 -47 -11 -47 12 0 21 5 21 11 0 18 55 6 58
-13 3 -13 -3 -18 -22 -18 -69 0 -110 -56 -66 -92 25 -20 43 -22 70 -8 13 7 21
7 25 0 3 -5 14 -10 24 -10 16 0 18 8 14 78 -4 61 -9 81 -25 95 -24 20 -53 22
-88 4z m68 -114 c-3 -19 -30 -28 -53 -19 -25 9 -5 36 27 36 23 0 29 -4 26 -17z"/>
<path d="M1974 467 c-22 -20 -27 -32 -27 -70 0 -54 20 -83 63 -92 38 -8 89 19
90 48 0 11 -35 8 -47 -4 -6 -6 -21 -9 -34 -7 -21 3 -24 9 -27 50 -3 44 -1 48
24 54 19 5 31 2 39 -10 14 -19 45 -22 45 -3 0 18 -12 32 -37 46 -33 17 -59 13
-89 -12z"/>
<path d="M2174 478 c-25 -12 -44 -48 -44 -83 0 -81 82 -120 143 -67 9 8 17 19
17 24 0 12 -34 10 -47 -3 -6 -6 -21 -9 -34 -7 -53 7 -48 108 6 108 14 0 28 -7
31 -15 7 -17 44 -21 44 -5 0 6 -11 22 -25 35 -25 26 -56 31 -91 13z"/>
<path d="M2330 395 c0 -88 1 -95 20 -95 19 0 20 7 20 95 0 88 -1 95 -20 95
-19 0 -20 -7 -20 -95z"/>
<path d="M2420 395 c0 -88 2 -95 20 -95 17 0 19 8 22 73 l3 72 30 0 30 0 3
-72 c3 -65 5 -73 22 -73 18 0 20 7 20 79 0 103 -24 131 -83 100 -16 -9 -22 -9
-25 0 -2 6 -12 11 -23 11 -17 0 -19 -8 -19 -95z"/>
<path d="M2639 461 c-73 -74 6 -191 102 -151 36 16 32 36 -6 32 -41 -5 -75 6
-75 23 0 12 14 15 61 15 l61 0 -7 33 c-8 39 -47 77 -81 77 -15 0 -38 -12 -55
-29z m89 -33 c3 -15 -4 -18 -32 -18 -24 0 -36 5 -36 14 0 30 63 33 68 4z"/>
<path d="M1040 30 c0 -7 287 -10 840 -10 553 0 840 3 840 10 0 7 -287 10 -840
10 -553 0 -840 -3 -840 -10z"/>
</g>
</svg>
